<svg xmlns="http://www.w3.org/2000/svg" xmlns:xlink="http://www.w3.org/1999/xlink" width="60" zoomAndPan="magnify" viewBox="0 0 60 60" height="60" preserveAspectRatio="xMidYMid meet" version="1.0" style="transition: opacity 1s ease 0s, fill 2s ease 0s;"><defs stroke="#ff8c69" fill="rgba(255, 255, 255, 1)"><clipPath id="7e73b1a204" stroke="#ff8c69" fill="rgba(255, 255, 255, 1)"><path d="M 6.808594 6 L 53.308594 6 L 53.308594 54 L 6.808594 54 Z M 6.808594 6 " clip-rule="nonzero" stroke="#ff8c69" fill="rgba(255, 255, 255, 1)"></path></clipPath></defs><rect x="-6" width="72" fill="rgba(255, 255, 255, 1)" y="-6" height="72" fill-opacity="1" stroke="#ff8c69"></rect><rect x="-6" width="72" fill="rgba(255, 255, 255, 1)" y="-6" height="72" fill-opacity="1" stroke="#ff8c69"></rect><rect x="-6" width="72" fill="rgba(255, 255, 255, 1)" y="-6" height="72" fill-opacity="1" stroke="#ff8c69"></rect><path fill="rgba(255, 255, 255, 1)" d="M 42.480469 48.066406 L 42.480469 50.433594 C 42.480469 50.632812 42.644531 50.796875 42.847656 50.796875 L 46.492188 50.796875 C 46.695312 50.796875 46.859375 50.632812 46.859375 50.433594 L 46.859375 48.066406 C 46.859375 46.945312 45.945312 46.035156 44.824219 46.035156 L 44.515625 46.035156 C 43.394531 46.035156 42.480469 46.945312 42.480469 48.066406 Z M 43.210938 48.066406 C 43.210938 47.347656 43.796875 46.765625 44.515625 46.765625 L 44.824219 46.765625 C 45.542969 46.765625 46.128906 47.347656 46.128906 48.066406 L 46.128906 50.066406 L 43.210938 50.066406 Z M 43.210938 48.066406 " fill-opacity="1" fill-rule="nonzero" stroke="#ff8c69"></path><path fill="rgba(255, 255, 255, 1)" d="M 15.5 46.035156 L 15.191406 46.035156 C 14.066406 46.035156 13.15625 46.945312 13.15625 48.066406 L 13.15625 50.433594 C 13.15625 50.632812 13.320312 50.796875 13.519531 50.796875 L 17.167969 50.796875 C 17.371094 50.796875 17.535156 50.632812 17.535156 50.433594 L 17.535156 48.066406 C 17.535156 46.945312 16.621094 46.035156 15.5 46.035156 Z M 16.804688 50.066406 L 13.886719 50.066406 L 13.886719 48.066406 C 13.886719 47.347656 14.472656 46.765625 15.191406 46.765625 L 15.5 46.765625 C 16.21875 46.765625 16.804688 47.347656 16.804688 48.066406 Z M 16.804688 50.066406 " fill-opacity="1" fill-rule="nonzero" stroke="#ff8c69"></path><g clip-path="url(#7e73b1a204)" stroke="#ff8c69" fill="rgba(255, 255, 255, 1)"><path fill="rgba(255, 255, 255, 1)" d="M 7.417969 37.375 L 10.28125 35.667969 L 10.28125 53.636719 C 10.28125 53.835938 10.445312 54 10.644531 54 L 49.316406 54 C 49.519531 54 49.683594 53.835938 49.683594 53.636719 L 49.683594 35.589844 L 52.695312 37.375 C 52.753906 37.410156 52.820312 37.425781 52.882812 37.425781 C 53.007812 37.425781 53.128906 37.363281 53.199219 37.25 C 53.300781 37.074219 53.242188 36.851562 53.070312 36.746094 L 38.238281 27.960938 L 38.238281 19.40625 L 41.296875 21.316406 C 41.359375 21.355469 41.425781 21.375 41.492188 21.375 C 41.613281 21.375 41.734375 21.3125 41.800781 21.203125 C 41.910156 21.03125 41.859375 20.804688 41.6875 20.699219 L 38.066406 18.4375 L 36.515625 17.472656 L 30.367188 13.632812 L 30.367188 9.179688 L 32.632812 9.179688 C 32.832031 9.179688 32.996094 9.015625 32.996094 8.816406 C 32.996094 8.613281 32.832031 8.449219 32.632812 8.449219 L 30.367188 8.449219 L 30.367188 6.363281 C 30.367188 6.164062 30.203125 6 30 6 C 29.800781 6 29.636719 6.164062 29.636719 6.363281 L 29.636719 8.449219 L 27.371094 8.449219 C 27.171875 8.449219 27.007812 8.613281 27.007812 8.816406 C 27.007812 9.015625 27.171875 9.179688 27.371094 9.179688 L 29.636719 9.179688 L 29.636719 13.683594 L 18.34375 20.621094 C 18.171875 20.726562 18.121094 20.953125 18.226562 21.125 C 18.332031 21.296875 18.558594 21.347656 18.730469 21.242188 L 21.726562 19.402344 L 21.726562 27.996094 L 7.042969 36.75 C 6.871094 36.851562 6.8125 37.074219 6.917969 37.25 C 7.019531 37.421875 7.246094 37.476562 7.417969 37.375 Z M 29.675781 53.269531 L 26.398438 53.269531 L 26.398438 49.859375 C 26.398438 48.050781 27.867188 46.578125 29.675781 46.566406 Z M 33.6875 53.269531 L 30.410156 53.269531 L 30.410156 46.566406 C 32.21875 46.578125 33.6875 48.050781 33.6875 49.855469 Z M 38.238281 28.847656 L 48.949219 35.238281 L 48.949219 53.269531 L 40.382812 53.269531 L 40.382812 36.9375 L 42.929688 38.457031 C 42.988281 38.492188 43.054688 38.507812 43.117188 38.507812 C 43.242188 38.507812 43.363281 38.445312 43.433594 38.328125 C 43.535156 38.15625 43.480469 37.933594 43.304688 37.828125 L 40.203125 35.980469 L 38.238281 34.804688 Z M 22.457031 18.953125 L 29.863281 14.402344 L 30.042969 14.292969 L 36.460938 18.300781 L 37.503906 18.949219 L 37.503906 34.371094 L 30.167969 29.992188 C 30.054688 29.925781 29.910156 29.925781 29.792969 29.992188 L 22.457031 34.371094 Z M 25.53125 33.386719 L 29.980469 30.730469 L 34.429688 33.386719 L 39.648438 36.5 L 39.648438 53.269531 L 34.417969 53.269531 L 34.417969 49.859375 C 34.417969 47.640625 32.609375 45.835938 30.382812 45.835938 L 29.703125 45.835938 C 27.476562 45.835938 25.667969 47.640625 25.667969 49.859375 L 25.667969 53.269531 L 20.3125 53.269531 L 20.3125 36.5 Z M 11.011719 35.238281 L 21.726562 28.847656 L 21.726562 34.804688 L 19.757812 35.980469 L 16.65625 37.828125 C 16.484375 37.933594 16.425781 38.15625 16.53125 38.328125 C 16.632812 38.503906 16.859375 38.558594 17.03125 38.457031 L 19.582031 36.933594 L 19.582031 53.269531 L 11.011719 53.269531 Z M 11.011719 35.238281 " fill-opacity="1" fill-rule="nonzero" stroke="#ff8c69"></path></g><path fill="rgba(255, 255, 255, 1)" d="M 28.101562 37.371094 L 29.636719 37.371094 L 29.636719 40.65625 C 29.636719 40.855469 29.800781 41.019531 30 41.019531 C 30.203125 41.019531 30.367188 40.855469 30.367188 40.65625 L 30.367188 37.371094 L 31.902344 37.371094 C 32.105469 37.371094 32.269531 37.207031 32.269531 37.007812 C 32.269531 36.804688 32.105469 36.640625 31.902344 36.640625 L 30.367188 36.640625 L 30.367188 35.238281 C 30.367188 35.035156 30.203125 34.871094 30 34.871094 C 29.800781 34.871094 29.636719 35.035156 29.636719 35.238281 L 29.636719 36.640625 L 28.101562 36.640625 C 27.898438 36.640625 27.734375 36.804688 27.734375 37.007812 C 27.734375 37.207031 27.898438 37.371094 28.101562 37.371094 Z M 28.101562 37.371094 " fill-opacity="1" fill-rule="nonzero" stroke="#ff8c69"></path><path fill="rgba(255, 255, 255, 1)" d="M 29.992188 27.40625 C 30.101562 27.402344 30.207031 27.382812 30.308594 27.339844 C 30.484375 27.265625 30.652344 27.183594 30.855469 27.070312 C 31.097656 26.9375 31.332031 26.789062 31.550781 26.625 C 32.933594 25.613281 33.601562 24.457031 33.484375 23.289062 C 33.390625 22.347656 32.628906 21.609375 31.710938 21.566406 C 31.296875 21.546875 30.871094 21.691406 30.480469 21.984375 C 30.296875 22.125 30.125 22.285156 29.980469 22.453125 C 29.835938 22.285156 29.667969 22.125 29.480469 21.984375 C 29.089844 21.691406 28.664062 21.546875 28.25 21.566406 C 27.332031 21.609375 26.570312 22.347656 26.476562 23.289062 C 26.359375 24.457031 27.027344 25.613281 28.410156 26.625 C 28.628906 26.789062 28.863281 26.9375 29.101562 27.066406 C 29.308594 27.183594 29.476562 27.265625 29.652344 27.339844 C 29.757812 27.382812 29.867188 27.40625 29.980469 27.40625 C 29.984375 27.40625 29.988281 27.40625 29.992188 27.40625 Z M 29.457031 26.429688 C 29.246094 26.3125 29.039062 26.179688 28.84375 26.039062 C 28.035156 25.445312 27.089844 24.496094 27.203125 23.359375 C 27.261719 22.789062 27.734375 22.320312 28.28125 22.296875 C 28.296875 22.296875 28.308594 22.296875 28.320312 22.296875 C 28.613281 22.296875 28.871094 22.441406 29.039062 22.570312 C 29.238281 22.71875 29.410156 22.890625 29.539062 23.074219 C 29.640625 23.214844 29.804688 23.300781 29.980469 23.300781 C 29.980469 23.300781 29.980469 23.300781 29.984375 23.300781 C 30.160156 23.300781 30.324219 23.214844 30.425781 23.070312 C 30.554688 22.890625 30.722656 22.71875 30.921875 22.570312 C 31.097656 22.4375 31.371094 22.28125 31.679688 22.296875 C 32.226562 22.320312 32.699219 22.789062 32.757812 23.359375 C 32.871094 24.496094 31.929688 25.445312 31.117188 26.039062 C 30.921875 26.179688 30.71875 26.3125 30.5 26.429688 C 30.320312 26.53125 30.175781 26.601562 30.027344 26.664062 C 30.011719 26.671875 29.996094 26.675781 29.984375 26.675781 C 29.96875 26.675781 29.953125 26.671875 29.9375 26.664062 C 29.789062 26.601562 29.640625 26.53125 29.457031 26.429688 Z M 29.457031 26.429688 " fill-opacity="1" fill-rule="nonzero" stroke="#ff8c69"></path></svg>
