<svg xmlns="http://www.w3.org/2000/svg" xmlns:xlink="http://www.w3.org/1999/xlink" width="60" zoomAndPan="magnify" viewBox="0 0 60 60" height="60" preserveAspectRatio="xMidYMid meet" version="1.0" style="transition: opacity 1s ease 0s, fill 2s ease 0s;"><defs stroke="#ff8c69" fill="rgba(255, 255, 255, 1)"><clipPath id="4be41c82e9" stroke="#ff8c69" fill="rgba(255, 255, 255, 1)"><path d="M 7.53125 19 L 52.53125 19 L 52.53125 54 L 7.53125 54 Z M 7.53125 19 " clip-rule="nonzero" stroke="#ff8c69" fill="rgba(255, 255, 255, 1)"></path></clipPath></defs><rect x="-6" width="72" fill="rgba(255, 255, 255, 1)" y="-6" height="72" fill-opacity="1" stroke="#ff8c69"></rect><rect x="-6" width="72" fill="rgba(255, 255, 255, 1)" y="-6" height="72" fill-opacity="1" stroke="#ff8c69"></rect><g clip-path="url(#4be41c82e9)" stroke="#ff8c69" fill="rgba(255, 255, 255, 1)"><path fill="rgba(255, 255, 255, 1)" d="M 52.265625 26.5 C 52.242188 26.453125 52.210938 26.414062 52.175781 26.378906 C 52.167969 26.375 52.167969 26.367188 52.160156 26.363281 L 47.148438 22.207031 C 46.933594 22.027344 46.613281 22.058594 46.433594 22.269531 C 46.253906 22.484375 46.285156 22.804688 46.5 22.984375 L 50.433594 26.242188 L 45.113281 26.242188 C 44.835938 26.242188 44.605469 26.472656 44.605469 26.75 C 44.605469 27.03125 44.835938 27.257812 45.113281 27.257812 L 50.433594 27.257812 L 35.722656 39.453125 L 32.734375 36.976562 C 31.167969 35.679688 28.894531 35.675781 27.324219 36.976562 L 24.339844 39.453125 L 9.628906 27.257812 L 13.75 27.257812 C 14.03125 27.257812 14.257812 27.03125 14.257812 26.75 C 14.257812 26.472656 14.03125 26.246094 13.75 26.246094 L 9.628906 26.246094 L 16.933594 20.191406 C 17.148438 20.011719 17.179688 19.691406 17 19.476562 C 16.820312 19.261719 16.5 19.230469 16.285156 19.410156 L 7.898438 26.363281 C 7.894531 26.367188 7.890625 26.375 7.886719 26.378906 C 7.847656 26.414062 7.820312 26.457031 7.792969 26.5 C 7.785156 26.515625 7.769531 26.53125 7.761719 26.546875 C 7.734375 26.609375 7.714844 26.679688 7.714844 26.753906 L 7.714844 49.417969 C 7.714844 50.707031 8.261719 51.867188 9.125 52.695312 C 9.128906 52.703125 9.128906 52.707031 9.132812 52.714844 C 9.179688 52.773438 9.238281 52.8125 9.300781 52.84375 C 10.105469 53.539062 11.136719 53.976562 12.28125 53.976562 L 47.777344 53.976562 C 48.925781 53.976562 49.964844 53.535156 50.765625 52.835938 C 50.824219 52.804688 50.878906 52.769531 50.925781 52.714844 C 50.929688 52.707031 50.929688 52.703125 50.933594 52.699219 C 51.800781 51.867188 52.34375 50.707031 52.34375 49.417969 L 52.34375 26.75 C 52.34375 26.675781 52.324219 26.609375 52.296875 26.542969 C 52.289062 26.527344 52.277344 26.515625 52.265625 26.5 Z M 8.730469 27.832031 L 23.546875 40.109375 L 9.578125 51.6875 C 9.058594 51.070312 8.730469 50.285156 8.730469 49.417969 Z M 12.28125 52.964844 C 11.5625 52.964844 10.894531 52.746094 10.335938 52.375 L 27.972656 37.753906 C 29.164062 36.765625 30.894531 36.765625 32.089844 37.753906 L 49.726562 52.375 C 49.164062 52.746094 48.5 52.964844 47.78125 52.964844 Z M 50.480469 51.6875 L 36.515625 40.109375 L 51.328125 27.832031 L 51.328125 49.417969 C 51.328125 50.285156 51.003906 51.070312 50.480469 51.6875 Z M 50.480469 51.6875 " fill-opacity="1" fill-rule="nonzero" stroke="#ff8c69"></path></g><path fill="rgba(255, 255, 255, 1)" d="M 14.59375 30.03125 C 14.855469 30.136719 15.152344 30.011719 15.257812 29.753906 L 24.535156 7.191406 L 46.683594 16.273438 L 39.480469 33.78125 C 39.375 34.042969 39.496094 34.335938 39.757812 34.441406 C 39.820312 34.46875 39.882812 34.480469 39.949219 34.480469 C 40.148438 34.480469 40.335938 34.363281 40.417969 34.167969 L 47.8125 16.1875 C 47.863281 16.066406 47.863281 15.925781 47.8125 15.800781 C 47.757812 15.679688 47.660156 15.578125 47.535156 15.527344 L 24.453125 6.0625 C 24.328125 6.011719 24.1875 6.011719 24.0625 6.0625 C 23.941406 6.117188 23.839844 6.214844 23.789062 6.339844 L 14.316406 29.367188 C 14.210938 29.628906 14.335938 29.925781 14.59375 30.03125 Z M 14.59375 30.03125 " fill-opacity="1" fill-rule="nonzero" stroke="#ff8c69"></path><path fill="rgba(255, 255, 255, 1)" d="M 39.335938 22.476562 C 39.535156 22.476562 39.722656 22.359375 39.804688 22.160156 C 39.910156 21.902344 39.785156 21.609375 39.53125 21.5 L 25.945312 15.933594 C 25.6875 15.824219 25.390625 15.949219 25.285156 16.207031 C 25.179688 16.464844 25.300781 16.761719 25.5625 16.867188 L 39.144531 22.4375 C 39.207031 22.464844 39.273438 22.476562 39.335938 22.476562 Z M 39.335938 22.476562 " fill-opacity="1" fill-rule="nonzero" stroke="#ff8c69"></path><path fill="rgba(255, 255, 255, 1)" d="M 37.28125 27.46875 C 37.484375 27.46875 37.671875 27.347656 37.75 27.152344 C 37.855469 26.894531 37.734375 26.597656 37.476562 26.492188 L 23.894531 20.921875 C 23.636719 20.816406 23.335938 20.941406 23.230469 21.199219 C 23.125 21.457031 23.25 21.753906 23.507812 21.859375 L 37.089844 27.429688 C 37.152344 27.457031 37.21875 27.46875 37.28125 27.46875 Z M 37.28125 27.46875 " fill-opacity="1" fill-rule="nonzero" stroke="#ff8c69"></path><path fill="rgba(255, 255, 255, 1)" d="M 21.839844 25.914062 C 21.582031 25.808594 21.285156 25.933594 21.179688 26.191406 C 21.070312 26.449219 21.195312 26.746094 21.453125 26.851562 L 35.035156 32.417969 C 35.101562 32.445312 35.164062 32.457031 35.230469 32.457031 C 35.429688 32.457031 35.617188 32.339844 35.699219 32.144531 C 35.804688 31.886719 35.679688 31.589844 35.421875 31.484375 Z M 21.839844 25.914062 " fill-opacity="1" fill-rule="nonzero" stroke="#ff8c69"></path></svg>
