<svg xmlns="http://www.w3.org/2000/svg" xmlns:xlink="http://www.w3.org/1999/xlink" width="60" zoomAndPan="magnify" viewBox="0 0 60 60" height="60" preserveAspectRatio="xMidYMid meet" version="1.0" style="transition: opacity 1s ease 0s, fill 2s ease 0s;"><defs stroke="#ff8c69" fill="rgba(255, 255, 255, 1)"><clipPath id="0ec774b010" stroke="#ff8c69" fill="rgba(255, 255, 255, 1)"><path d="M 7.882812 3.863281 L 52.105469 3.863281 L 52.105469 56.363281 L 7.882812 56.363281 Z M 7.882812 3.863281 " clip-rule="nonzero" stroke="#ff8c69" fill="rgba(255, 255, 255, 1)"></path></clipPath></defs><rect x="-6" width="72" fill="rgba(255, 255, 255, 1)" y="-6" height="72" fill-opacity="1" stroke="#ff8c69"></rect><rect x="-6" width="72" fill="rgba(255, 255, 255, 1)" y="-6" height="72" fill-opacity="1" stroke="#ff8c69"></rect><rect x="-6" width="72" fill="rgba(255, 255, 255, 1)" y="-6" height="72" fill-opacity="1" stroke="#ff8c69"></rect><g clip-path="url(#0ec774b010)" stroke="#ff8c69" fill="rgba(255, 255, 255, 1)"><path fill="rgba(255, 255, 255, 1)" d="M 36.894531 5.429688 C 36.703125 5.253906 36.382812 5.269531 36.210938 5.457031 L 32.792969 9.179688 C 32.707031 9.277344 32.660156 9.398438 32.667969 9.527344 C 32.671875 9.660156 32.726562 9.777344 32.820312 9.863281 C 32.910156 9.945312 33.027344 9.992188 33.148438 9.992188 C 33.285156 9.992188 33.414062 9.933594 33.503906 9.835938 L 36.921875 6.113281 C 37.101562 5.914062 37.089844 5.609375 36.894531 5.429688 Z M 23.601562 5.457031 C 23.425781 5.269531 23.105469 5.253906 22.917969 5.429688 C 22.722656 5.609375 22.707031 5.914062 22.886719 6.113281 L 26.304688 9.835938 C 26.398438 9.933594 26.527344 9.992188 26.660156 9.992188 C 26.785156 9.992188 26.898438 9.945312 26.988281 9.863281 C 27.085938 9.777344 27.140625 9.660156 27.144531 9.527344 C 27.148438 9.398438 27.105469 9.277344 27.019531 9.179688 Z M 29.90625 3.863281 C 29.640625 3.863281 29.421875 4.078125 29.421875 4.34375 L 29.421875 8.621094 C 29.421875 8.886719 29.640625 9.105469 29.90625 9.105469 C 30.171875 9.105469 30.390625 8.886719 30.390625 8.621094 L 30.390625 4.34375 C 30.390625 4.078125 30.171875 3.863281 29.90625 3.863281 Z M 37.730469 25.300781 C 36.1875 25.171875 34.824219 24.742188 34.070312 24.460938 C 34.632812 27.121094 35.566406 29.292969 36.855469 30.90625 C 37.410156 31.601562 38.953125 33.332031 40.109375 33.050781 C 41.265625 32.769531 41.851562 30.464844 42.015625 29.652344 C 42.296875 28.25 42.300781 26.691406 42.042969 24.996094 C 41.382812 25.117188 39.414062 25.441406 37.730469 25.300781 Z M 44.109375 50.652344 C 44.6875 52.632812 43.617188 53.199219 42.671875 53.695312 C 42.535156 53.769531 42.390625 53.847656 42.242188 53.929688 C 41.566406 54.3125 40.933594 54.578125 39.738281 54.976562 C 39.378906 55.097656 39.289062 55.257812 39.265625 55.375 L 51.085938 52.5 C 51.011719 52.410156 50.90625 52.347656 50.691406 52.347656 C 50.628906 52.347656 50.558594 52.351562 50.488281 52.363281 C 49.4375 52.527344 48.792969 52.59375 48.183594 52.59375 C 48.046875 52.59375 47.914062 52.589844 47.78125 52.582031 C 47.609375 52.578125 47.449219 52.574219 47.289062 52.574219 C 46.222656 52.566406 45.011719 52.554688 44.621094 50.53125 L 41.539062 37.828125 C 41.082031 35.941406 41.101562 34.597656 41.601562 33.71875 C 42.292969 32.503906 42.734375 31.667969 43.097656 29.867188 C 43.558594 27.570312 43.355469 24.910156 42.492188 21.960938 C 41.191406 17.519531 39.523438 13.480469 39.007812 12.265625 L 31.558594 14.074219 C 31.65625 15.394531 32.027344 19.75 32.90625 24.289062 C 33.492188 27.308594 34.53125 29.765625 35.996094 31.59375 C 37.140625 33.027344 37.917969 33.570312 39.089844 34.332031 C 39.933594 34.882812 40.570312 36.066406 41.027344 37.953125 Z M 39.1875 56.363281 C 38.9375 56.363281 38.699219 56.265625 38.535156 56.09375 C 38.417969 55.976562 38.28125 55.765625 38.292969 55.441406 C 38.304688 55.0625 38.464844 54.382812 39.433594 54.058594 C 40.710938 53.632812 41.222656 53.398438 41.765625 53.089844 C 41.921875 53 42.074219 52.917969 42.222656 52.839844 C 43.15625 52.347656 43.542969 52.144531 43.179688 50.917969 C 43.175781 50.910156 43.175781 50.902344 43.171875 50.894531 L 40.085938 38.183594 C 39.695312 36.570312 39.183594 35.546875 38.5625 35.144531 C 37.304688 34.324219 36.453125 33.71875 35.238281 32.199219 C 33.675781 30.246094 32.574219 27.648438 31.957031 24.476562 C 30.894531 18.996094 30.570312 13.785156 30.566406 13.730469 C 30.550781 13.496094 30.707031 13.285156 30.933594 13.230469 L 39.175781 11.226562 C 39.402344 11.171875 39.636719 11.289062 39.730469 11.503906 C 39.753906 11.550781 41.851562 16.328125 43.417969 21.6875 C 44.328125 24.789062 44.535156 27.605469 44.042969 30.058594 C 43.660156 31.964844 43.183594 32.894531 42.441406 34.199219 C 42.074219 34.84375 42.085938 35.988281 42.476562 37.601562 L 45.5625 50.3125 C 45.566406 50.320312 45.566406 50.328125 45.570312 50.335938 C 45.808594 51.59375 46.246094 51.597656 47.300781 51.605469 C 47.464844 51.609375 47.640625 51.609375 47.816406 51.617188 C 48.503906 51.644531 49.125 51.597656 50.335938 51.40625 C 51.082031 51.289062 51.671875 51.546875 51.984375 52.109375 C 52.125 52.367188 52.140625 52.644531 52.03125 52.894531 C 51.921875 53.152344 51.679688 53.351562 51.402344 53.417969 L 39.40625 56.335938 C 39.335938 56.351562 39.265625 56.363281 39.1875 56.363281 Z M 17.945312 24.996094 C 17.6875 26.691406 17.691406 28.25 17.972656 29.652344 C 18.136719 30.464844 18.722656 32.769531 19.878906 33.050781 C 21.035156 33.332031 22.578125 31.601562 23.132812 30.90625 C 24.421875 29.292969 25.355469 27.121094 25.917969 24.460938 C 25.164062 24.742188 23.800781 25.171875 22.257812 25.300781 C 20.574219 25.441406 18.605469 25.117188 17.945312 24.996094 Z M 8.902344 52.5 L 20.71875 55.375 C 20.695312 55.253906 20.605469 55.097656 20.25 54.976562 C 19.054688 54.578125 18.421875 54.316406 17.746094 53.929688 C 17.597656 53.847656 17.453125 53.769531 17.316406 53.695312 C 16.371094 53.199219 15.300781 52.632812 15.878906 50.652344 L 18.960938 37.953125 C 19.417969 36.066406 20.054688 34.882812 20.898438 34.332031 C 22.070312 33.570312 22.847656 33.027344 23.996094 31.59375 C 25.457031 29.765625 26.496094 27.308594 27.082031 24.289062 C 27.960938 19.75 28.332031 15.394531 28.429688 14.074219 L 20.980469 12.265625 C 20.464844 13.480469 18.796875 17.519531 17.496094 21.960938 C 16.632812 24.910156 16.429688 27.570312 16.890625 29.867188 C 17.253906 31.667969 17.695312 32.503906 18.386719 33.71875 C 18.886719 34.597656 18.90625 35.941406 18.449219 37.828125 L 15.367188 50.53125 C 14.976562 52.554688 13.765625 52.566406 12.695312 52.574219 C 12.539062 52.574219 12.378906 52.578125 12.207031 52.582031 C 11.457031 52.613281 10.78125 52.5625 9.5 52.363281 C 9.429688 52.351562 9.359375 52.347656 9.296875 52.347656 C 9.082031 52.347656 8.972656 52.414062 8.902344 52.5 Z M 20.800781 56.363281 C 20.726562 56.363281 20.652344 56.351562 20.582031 56.335938 L 8.585938 53.417969 C 8.308594 53.351562 8.066406 53.152344 7.957031 52.894531 C 7.847656 52.644531 7.863281 52.367188 8.003906 52.109375 C 8.316406 51.546875 8.902344 51.289062 9.652344 51.40625 C 10.863281 51.597656 11.488281 51.644531 12.171875 51.617188 C 12.347656 51.609375 12.523438 51.609375 12.6875 51.605469 C 13.742188 51.597656 14.179688 51.59375 14.421875 50.335938 C 14.421875 50.328125 14.421875 50.320312 14.425781 50.3125 L 17.511719 37.601562 C 17.902344 35.988281 17.914062 34.84375 17.546875 34.199219 C 16.804688 32.894531 16.328125 31.964844 15.945312 30.058594 C 15.453125 27.605469 15.660156 24.789062 16.570312 21.6875 C 18.136719 16.328125 20.234375 11.550781 20.257812 11.503906 C 20.351562 11.289062 20.585938 11.171875 20.8125 11.226562 L 29.054688 13.230469 C 29.28125 13.285156 29.4375 13.496094 29.421875 13.730469 C 29.417969 13.785156 29.09375 18.996094 28.03125 24.476562 C 27.414062 27.648438 26.3125 30.246094 24.75 32.199219 C 23.535156 33.71875 22.683594 34.324219 21.425781 35.144531 C 20.804688 35.546875 20.292969 36.570312 19.902344 38.183594 L 16.816406 50.894531 C 16.8125 50.902344 16.8125 50.910156 16.808594 50.917969 C 16.445312 52.144531 16.832031 52.347656 17.765625 52.839844 C 17.914062 52.917969 18.066406 53 18.222656 53.089844 C 18.765625 53.398438 19.277344 53.632812 20.554688 54.058594 C 21.523438 54.382812 21.6875 55.0625 21.695312 55.441406 C 21.707031 55.765625 21.570312 55.976562 21.453125 56.09375 C 21.289062 56.265625 21.050781 56.363281 20.800781 56.363281 " fill-opacity="1" fill-rule="nonzero" stroke="#ff8c69"></path></g></svg>
