<svg xmlns="http://www.w3.org/2000/svg" xmlns:xlink="http://www.w3.org/1999/xlink" width="60" zoomAndPan="magnify" viewBox="0 0 60 60" height="60" preserveAspectRatio="xMidYMid meet" version="1.0" style="transition: opacity 1s ease 0s, fill 2s ease 0s;"><defs stroke="rgba(255, 255, 255, 1)" fill="rgba(255,255,255,0)"><clipPath id="dc853e3665" stroke="rgba(255, 255, 255, 1)" fill="rgba(255,255,255,0)"><path d="M 6 8.574219 L 53 8.574219 L 53 51.324219 L 6 51.324219 Z M 6 8.574219 " clip-rule="nonzero" stroke="rgba(255, 255, 255, 1)" fill="rgba(255,255,255,0)"></path></clipPath></defs><rect x="-6" width="72" fill="rgba(255,255,255,0)" y="-6" height="72" fill-opacity="1" stroke="rgba(255, 255, 255, 1)"></rect><rect x="-6" width="72" fill="rgba(255,255,255,0)" y="-6" height="72" fill-opacity="1" stroke="rgba(255, 255, 255, 1)"></rect><rect x="-6" width="72" fill="rgba(255,255,255,0)" y="-6" height="72" fill-opacity="1" stroke="rgba(255, 255, 255, 1)"></rect><path fill="rgba(255,255,255,0)" d="M 42.023438 26.222656 C 39.242188 25.125 36.199219 25.175781 33.453125 26.363281 C 30.699219 27.5625 28.574219 29.761719 27.472656 32.5625 C 25.207031 38.328125 28.046875 44.867188 33.800781 47.136719 C 35.132812 47.664062 36.523438 47.925781 37.914062 47.925781 C 39.429688 47.925781 40.941406 47.617188 42.371094 46.996094 C 45.128906 45.800781 47.25 43.597656 48.351562 40.800781 C 50.617188 35.03125 47.78125 28.492188 42.023438 26.222656 Z M 47.664062 40.53125 C 46.636719 43.144531 44.652344 45.203125 42.078125 46.320312 C 39.511719 47.429688 36.671875 47.476562 34.074219 46.453125 C 28.695312 44.332031 26.042969 38.21875 28.160156 32.828125 C 29.191406 30.214844 31.175781 28.15625 33.75 27.039062 C 35.085938 26.460938 36.496094 26.171875 37.910156 26.171875 C 39.210938 26.171875 40.507812 26.414062 41.753906 26.90625 C 47.132812 29.03125 49.78125 35.140625 47.664062 40.53125 Z M 47.664062 40.53125 " fill-opacity="1" fill-rule="nonzero" stroke="rgba(255, 255, 255, 1)"></path><g clip-path="url(#dc853e3665)" stroke="rgba(255, 255, 255, 1)" fill="rgba(255,255,255,0)"><path fill="rgba(255,255,255,0)" d="M 46.277344 24.679688 L 45.679688 22.613281 L 45.613281 21.859375 C 45.609375 21.851562 45.609375 21.847656 45.609375 21.839844 C 45.597656 21.753906 45.554688 21.679688 45.496094 21.625 C 45.484375 21.609375 45.46875 21.601562 45.453125 21.589844 C 45.429688 21.570312 45.402344 21.558594 45.371094 21.546875 L 42.085938 20.25 C 42.046875 20.234375 42.011719 20.226562 41.972656 20.226562 C 41.964844 20.226562 41.957031 20.226562 41.949219 20.226562 C 41.914062 20.226562 41.878906 20.230469 41.847656 20.242188 C 41.835938 20.246094 41.824219 20.25 41.8125 20.253906 C 41.777344 20.265625 41.746094 20.285156 41.71875 20.308594 C 41.714844 20.3125 41.707031 20.3125 41.703125 20.320312 L 41.125 20.835938 L 39.113281 22.316406 C 37.671875 22.1875 36.261719 22.265625 34.910156 22.527344 C 33.777344 16.914062 29.546875 12.484375 24 11.164062 L 22.6875 9.460938 L 22.347656 8.785156 C 22.34375 8.78125 22.34375 8.773438 22.339844 8.765625 C 22.296875 8.695312 22.234375 8.640625 22.164062 8.609375 C 22.140625 8.601562 22.117188 8.59375 22.089844 8.589844 C 22.066406 8.582031 22.039062 8.582031 22.011719 8.582031 L 18.476562 8.582031 C 18.4375 8.582031 18.398438 8.589844 18.363281 8.597656 C 18.355469 8.601562 18.347656 8.605469 18.339844 8.609375 C 18.308594 8.621094 18.28125 8.640625 18.253906 8.660156 C 18.242188 8.667969 18.230469 8.679688 18.222656 8.6875 C 18.199219 8.710938 18.179688 8.738281 18.160156 8.765625 C 18.15625 8.773438 18.148438 8.777344 18.144531 8.785156 L 17.800781 9.476562 L 16.46875 11.597656 C 10.199219 13.441406 6 18.972656 6 25.402344 C 6 33.46875 12.550781 40.035156 20.605469 40.035156 C 21.632812 40.035156 22.667969 39.925781 23.632812 39.730469 C 24.628906 44.363281 27.839844 48.433594 32.558594 50.296875 C 34.292969 50.980469 36.105469 51.320312 37.917969 51.320312 C 39.886719 51.320312 41.855469 50.917969 43.71875 50.109375 C 47.304688 48.550781 50.070312 45.6875 51.503906 42.042969 C 54 35.691406 51.851562 28.570312 46.277344 24.679688 Z M 44.929688 22.53125 L 43.574219 23.734375 L 43.320312 23.15625 L 44.921875 22.441406 Z M 44.292969 21.914062 L 43.046875 22.472656 L 42.585938 21.238281 Z M 41.804688 23.015625 L 41.734375 21.28125 L 41.792969 21.226562 L 42.371094 22.769531 Z M 21.960938 9.660156 L 21.207031 11.191406 L 20.765625 10.75 L 21.917969 9.578125 Z M 21.136719 9.316406 L 20.246094 10.222656 L 19.355469 9.316406 Z M 19.289062 11.191406 L 18.535156 9.660156 L 18.574219 9.578125 L 19.726562 10.75 Z M 20.605469 39.296875 C 12.960938 39.296875 6.738281 33.0625 6.738281 25.402344 C 6.738281 19.257812 10.785156 13.980469 16.808594 12.265625 C 16.894531 12.238281 16.96875 12.183594 17.019531 12.105469 L 18.082031 10.414062 L 18.855469 11.976562 C 18.871094 12.011719 18.894531 12.042969 18.921875 12.070312 C 18.921875 12.074219 18.921875 12.074219 18.925781 12.078125 C 18.929688 12.082031 18.933594 12.082031 18.9375 12.085938 C 18.964844 12.109375 18.996094 12.128906 19.03125 12.144531 C 19.039062 12.152344 19.050781 12.15625 19.0625 12.160156 C 19.101562 12.175781 19.144531 12.183594 19.1875 12.183594 C 19.238281 12.183594 19.289062 12.171875 19.335938 12.148438 C 19.339844 12.148438 19.34375 12.148438 19.347656 12.144531 C 19.367188 12.136719 19.378906 12.121094 19.394531 12.109375 C 19.414062 12.097656 19.433594 12.089844 19.445312 12.074219 L 20.246094 11.273438 L 21.046875 12.074219 C 21.117188 12.144531 21.210938 12.183594 21.308594 12.183594 C 21.328125 12.183594 21.351562 12.183594 21.371094 12.179688 C 21.488281 12.160156 21.589844 12.085938 21.640625 11.976562 L 22.441406 10.351562 L 23.496094 11.71875 C 23.550781 11.785156 23.621094 11.832031 23.707031 11.851562 C 28.953125 13.050781 33.121094 17.382812 34.191406 22.683594 C 33.316406 22.902344 32.46875 23.195312 31.660156 23.5625 C 30.730469 18.167969 26.066406 14.160156 20.605469 14.160156 C 14.421875 14.160156 9.386719 19.203125 9.386719 25.402344 C 9.386719 31.597656 14.421875 36.640625 20.605469 36.640625 C 21.542969 36.640625 22.449219 36.53125 23.3125 36.320312 C 23.289062 37.226562 23.355469 38.125 23.5 39.003906 C 22.578125 39.195312 21.585938 39.296875 20.605469 39.296875 Z M 23.351562 35.550781 C 22.484375 35.78125 21.5625 35.90625 20.605469 35.90625 C 14.828125 35.90625 10.125 31.191406 10.125 25.402344 C 10.125 19.609375 14.828125 14.898438 20.605469 14.898438 C 25.777344 14.898438 30.1875 18.75 30.964844 23.902344 C 28 25.453125 25.617188 28.023438 24.324219 31.316406 C 23.777344 32.707031 23.460938 34.132812 23.351562 35.550781 Z M 50.816406 41.773438 C 49.457031 45.234375 46.828125 47.957031 43.421875 49.433594 C 40.03125 50.90625 36.269531 50.96875 32.832031 49.609375 C 25.714844 46.800781 22.207031 38.714844 25.011719 31.585938 C 26.695312 27.296875 30.328125 24.296875 34.671875 23.328125 C 34.679688 23.328125 34.683594 23.328125 34.691406 23.328125 C 34.695312 23.324219 34.699219 23.324219 34.703125 23.320312 C 36.132812 23.007812 37.640625 22.910156 39.179688 23.0625 C 39.273438 23.074219 39.363281 23.046875 39.4375 22.992188 L 41.019531 21.828125 L 41.089844 23.585938 C 41.089844 23.613281 41.101562 23.636719 41.109375 23.660156 C 41.113281 23.679688 41.113281 23.699219 41.121094 23.71875 C 41.140625 23.765625 41.171875 23.804688 41.203125 23.835938 C 41.210938 23.84375 41.222656 23.847656 41.234375 23.855469 C 41.261719 23.875 41.289062 23.898438 41.324219 23.910156 C 41.34375 23.917969 41.367188 23.917969 41.386719 23.925781 C 41.410156 23.929688 41.433594 23.9375 41.460938 23.9375 C 41.460938 23.9375 41.460938 23.9375 41.464844 23.9375 C 41.46875 23.9375 41.472656 23.9375 41.472656 23.9375 C 41.496094 23.9375 41.515625 23.925781 41.539062 23.921875 C 41.5625 23.917969 41.585938 23.917969 41.605469 23.90625 L 42.644531 23.453125 L 43.097656 24.496094 C 43.144531 24.605469 43.242188 24.683594 43.355469 24.710938 C 43.382812 24.714844 43.410156 24.71875 43.4375 24.71875 C 43.527344 24.71875 43.613281 24.683594 43.683594 24.625 L 45.121094 23.34375 L 45.605469 25.011719 C 45.628906 25.09375 45.679688 25.164062 45.753906 25.210938 C 51.121094 28.890625 53.203125 35.699219 50.816406 41.773438 Z M 50.816406 41.773438 " fill-opacity="1" fill-rule="nonzero" stroke="rgba(255, 255, 255, 1)"></path></g></svg>
